<svg xmlns="http://www.w3.org/2000/svg" width="206.512" height="33.939" viewBox="0 0 206.512 33.939">
  <g id="Layer_1_copy" data-name="Layer 1 copy" transform="translate(0 0.01)">
    <g id="그룹_27" data-name="그룹 27" transform="translate(0 -0.01)">
      <g id="그룹_25" data-name="그룹 25">
        <g id="그룹_23" data-name="그룹 23" transform="translate(0 18.724)">
          <path id="패스_206" data-name="패스 206" d="M7.4,28.56h2.759L7.767,31.412l4.815-2.852h3.237L9.962,31.876l-1.22,5.492h-3.3l.929-3.509-1.26.723L2.759,37.368H0L7.4,28.56Z" transform="translate(0 -28.334)" fill="#bdbdbd" fill-rule="evenodd"/>
          <path id="패스_207" data-name="패스 207" d="M22.82,30.362c1.247-.04.637,1.24-.371,2.441-1.227,1.459-2.6,2.54-3.787,2.54-1.32,0-.458-1.406.491-2.54.935-1.114,2.421-2.441,3.668-2.441h0Zm1.824-2.142c-2.613,0-5.91,1.791-8.238,4.557-2.52,3-2.189,4.709.451,4.709,2.487,0,5.83-1.685,8.35-4.683,1.957-2.328,2.434-4.583-.564-4.583h0Z" transform="translate(-4.945 -28.22)" fill="#bdbdbd" fill-rule="evenodd"/>
          <path id="패스_208" data-name="패스 208" d="M33.221,28.57h7.714l-1.95,2.315H36.511l-5.452,6.487H28.3l5.452-6.487H31.271l1.95-2.315Z" transform="translate(-9.53 -28.338)" fill="#bdbdbd" fill-rule="evenodd"/>
          <path id="패스_209" data-name="패스 209" d="M37.27,37.368l7.4-8.808h2.686l-7.4,8.808Z" transform="translate(-12.55 -28.334)" fill="#bdbdbd" fill-rule="evenodd"/>
        </g>
        <g id="그룹_24" data-name="그룹 24" transform="translate(30.53)">
          <path id="패스_210" data-name="패스 210" d="M61.135,36.8H56.85c3.7-4.371,8.2-9.883,8.2-9.883h4.2L61.141,36.8h0Z" transform="translate(-49.674 -9.058)" fill="#bdbdbd" fill-rule="evenodd"/>
          <path id="패스_211" data-name="패스 211" d="M82.955,36.8H78.67c3.7-4.371,8.2-9.883,8.2-9.883h4.2L82.961,36.8h0Z" transform="translate(-57.021 -9.058)" fill="#bdbdbd" fill-rule="evenodd"/>
          <path id="패스_212" data-name="패스 212" d="M64.461,43c8.6-10.579,13.186-16.077,13.186-16.077h-4.2S68.839,32.432,60.17,43h4.285Z" transform="translate(-50.792 -9.058)" fill="#bdbdbd" fill-rule="evenodd"/>
          <path id="패스_213" data-name="패스 213" d="M71.24,0c-2.593,3.157-8.35,10.141-8.987,10.778a4.33,4.33,0,0,1-2.295,1.393,8.68,8.68,0,0,0-2.733,2.262c-.424.451-11.2,13.3-11.2,13.3h4.2s10.718-12.834,11.143-13.3A5.7,5.7,0,0,1,63.9,12.91a7.707,7.707,0,0,0,2.666-2.089C66.956,10.37,72.826,3.2,75.452-.01h-4.2Z" transform="translate(-46.03 0.01)" fill="#bdbdbd" fill-rule="evenodd"/>
          <path id="패스_214" data-name="패스 214" d="M60.921,8.05c-1.645,2-4.046,4.908-4.583,5.439a4.33,4.33,0,0,1-2.295,1.393,8.68,8.68,0,0,0-2.733,2.262c-.424.451-1.791,1.957-1.791,1.957h4.2s1.313-1.5,1.738-1.957a5.7,5.7,0,0,1,2.534-1.519,7.707,7.707,0,0,0,2.666-2.089c.325-.378,2.792-3.416,4.484-5.485H60.935Z" transform="translate(-47.205 -2.704)" fill="#bdbdbd" fill-rule="evenodd"/>
          <path id="패스_215" data-name="패스 215" d="M82.352,8.05c-1.645,2-4.046,4.908-4.583,5.439a4.33,4.33,0,0,1-2.295,1.393,8.68,8.68,0,0,0-2.733,2.262c-.424.451-1.671,1.963-1.671,1.963h4.2s1.194-1.5,1.618-1.963a5.7,5.7,0,0,1,2.534-1.519,7.707,7.707,0,0,0,2.666-2.089c.325-.378,2.792-3.416,4.484-5.485H82.365Z" transform="translate(-54.462 -2.704)" fill="#bdbdbd" fill-rule="evenodd"/>
        </g>
      </g>
      <g id="그룹_26" data-name="그룹 26" transform="translate(70.717 10.904)">
        <path id="패스_216" data-name="패스 216" d="M167.234,18.267v2.66h12.821c.982,0,.73.829.73,1.93v8c0,.378.2,1.307-.836,1.307h-1.5V26.736h-3.031v5.425h-2.507V26.736h-3.071v5.425H166.81v2.66h14c2.971,0,2.925-2.2,2.925-3.369V21.218a2.815,2.815,0,0,0-2.719-2.958H167.241Z" transform="translate(-126.888 -17.046)" fill="#bdbdbd" fill-rule="evenodd"/>
        <path id="패스_217" data-name="패스 217" d="M232.1,27.3a5.06,5.06,0,0,0,3.734-1.565A5.125,5.125,0,0,0,237.4,21.98a5.31,5.31,0,0,0-5.3-5.28,5.276,5.276,0,0,0-5.3,5.28,5.159,5.159,0,0,0,1.545,3.754A5.083,5.083,0,0,0,232.1,27.3Zm-1.937-7.289a2.739,2.739,0,0,1,4.676,1.97,2.607,2.607,0,0,1-.8,1.91,2.654,2.654,0,0,1-1.937.836,2.622,2.622,0,0,1-1.937-.836,2.746,2.746,0,0,1,0-3.88Z" transform="translate(-147.09 -16.521)" fill="#bdbdbd" fill-rule="evenodd"/>
        <path id="패스_218" data-name="패스 218" d="M273.376,20.806c0-2.832-2.819-2.54-3.515-2.54h-12.92v2.66h11.547c2.069,0,1.983-.046,1.983,1.731v4.125H256.41v2.733h7.249v5.372h2.905V29.515h6.805V20.806h0Z" transform="translate(-157.06 -17.045)" fill="#bdbdbd" fill-rule="evenodd"/>
        <path id="패스_219" data-name="패스 219" d="M150.644,18.416H137.731v2.66h11.547c2.069,0,1.983-.046,1.983,1.731v.982H137.2v2.733h7.249V28.61h-6.725v2.66h11.547c2.069,0,1.983-.046,1.983,1.731v1.85l2.9.027V31.15c0-2.832-2.825-2.54-3.515-2.54h-3.29V26.521h6.805V20.956c0-2.832-2.825-2.54-3.515-2.54h0Z" transform="translate(-116.918 -17.096)" fill="#bdbdbd" fill-rule="evenodd"/>
        <path id="패스_220" data-name="패스 220" d="M296.871,25.112a5.532,5.532,0,0,0-.7-7.024,5.337,5.337,0,0,0-3.92-1.618,5.4,5.4,0,0,0-3.94,1.618,5.337,5.337,0,0,0-1.618,3.92,5.4,5.4,0,0,0,.929,3.1H286.04v2.56h4.921v2.56h2.8v-2.56h4.9v-2.56Zm-6.692-5.207a3.014,3.014,0,0,1,4.152,0,2.857,2.857,0,0,1,.862,2.109,2.783,2.783,0,0,1-.862,2.043,2.845,2.845,0,0,1-2.076.9,2.813,2.813,0,0,1-2.076-.9,2.93,2.93,0,0,1,0-4.152Z" transform="translate(-167.038 -16.443)" fill="#bdbdbd" fill-rule="evenodd"/>
        <path id="패스_221" data-name="패스 221" d="M300.748,18.25h-2.872v2.54h2.109v9.843c0,.57.192,1.3-.816,1.3H289.7c-.869,0-.71-.7-.71-1.194V29.4H286.09v2.812a2.159,2.159,0,0,0,2.268,2.388h11.6a2.779,2.779,0,0,0,2.892-2.66V20.684c0-.723-.126-2.428-2.1-2.428h0Z" transform="translate(-167.055 -17.043)" fill="#bdbdbd" fill-rule="evenodd"/>
        <path id="패스_222" data-name="패스 222" d="M108.411,20.3a5.532,5.532,0,0,0,.7,7.024,5.337,5.337,0,0,0,3.92,1.618,5.4,5.4,0,0,0,3.94-1.618,5.337,5.337,0,0,0,1.618-3.92,5.4,5.4,0,0,0-.929-3.1h1.579v-2.56H114.32V16.43h-2.8v1.313h-4.9V20.3h1.791ZM115.1,25.51a3.014,3.014,0,0,1-4.152,0,2.857,2.857,0,0,1-.862-2.109,2.711,2.711,0,0,1,.862-2.043,2.845,2.845,0,0,1,2.076-.9,2.813,2.813,0,0,1,2.076.9,2.93,2.93,0,0,1,0,4.152Z" transform="translate(-106.62 -16.43)" fill="#bdbdbd" fill-rule="evenodd"/>
        <path id="패스_223" data-name="패스 223" d="M123.424,32.354c0,1.008-.743,2.368-2.885,2.487h-11.6a2.159,2.159,0,0,1-2.268-2.388V29.642h2.905v1.34c0,.491-.159,1.194.71,1.194h9.465a.819.819,0,0,0,.8-.816V20.708c0-.723.126-2.428,2.1-2.428h2.872v2.54h-2.109V32.354h0Z" transform="translate(-106.637 -17.053)" fill="#bdbdbd" fill-rule="evenodd"/>
        <path id="패스_224" data-name="패스 224" d="M214.05,26.926h-7.117V25.911h6.785V23.742H200.1V22.88h13.617V21.261H200.1v-.9h13.617v-2.1H199.061c-2.348,0-2.149,1.506-2.149,2.056v3.343c0,.623-.133,2.242,2.083,2.242h4.756v1.015H196.6v2.388h2.925a5.963,5.963,0,1,0,11.514,0h3.011V26.926h0Zm-5.538,3.98a3.23,3.23,0,1,1-6.46,0,3.164,3.164,0,0,1,.438-1.592h5.585a3.164,3.164,0,0,1,.438,1.592h0Z" transform="translate(-136.92 -17.05)" fill="#bdbdbd" fill-rule="evenodd"/>
        <path id="패스_225" data-name="패스 225" d="M244.313,21.186c0-2.971-2.308-2.613-2.872-2.613s0,.007,0,.007H238.41v2.487h3.038v2.361H238.41v2.52h3.038V30.87c0,.272.259,1.167-.829,1.167h-9.14c-1.307,0-1.214-.57-1.214-1.055V28.078H227.36v4.238a2.206,2.206,0,0,0,.013.279,2.092,2.092,0,0,0,2.262,2.109h12.4a2.093,2.093,0,0,0,2.262-2.109c.007-.113.013-.212.013-.279V28.588h0V21.18h0Z" transform="translate(-147.278 -17.147)" fill="#bdbdbd" fill-rule="evenodd"/>
      </g>
    </g>
  </g>
</svg>
