<?xml version="1.0" encoding="UTF-8"?>
<svg id="_레이어_2" data-name="레이어 2" xmlns="http://www.w3.org/2000/svg" viewBox="0 0 311.36 51.16">
  <defs>
    <style>
      .cls-1 {
        fill: #004098;
      }

      .cls-1, .cls-2, .cls-3, .cls-4, .cls-5 {
        fill-rule: evenodd;
      }

      .cls-2 {
        fill: #231815;
      }

      .cls-3 {
        fill: #727171;
      }

      .cls-4 {
        fill: #e6002d;
      }

      .cls-5 {
        fill: #005bac;
      }
    </style>
  </defs>
  <g id="Layer_1_copy" data-name="Layer 1 copy">
    <g>
      <g>
        <g>
          <polygon class="cls-3" points="11.16 28.56 15.32 28.56 11.71 32.86 18.97 28.56 23.85 28.56 15.02 33.56 13.18 41.84 8.2 41.84 9.6 36.55 7.7 37.64 4.16 41.84 0 41.84 11.16 28.56 11.16 28.56"/>
          <path class="cls-3" d="m26.95,31.45c1.88-.06.96,1.87-.56,3.68-1.85,2.2-3.92,3.83-5.71,3.83-1.99,0-.69-2.12.74-3.83,1.41-1.68,3.65-3.68,5.53-3.68h0Zm2.75-3.23c-3.94,0-8.91,2.7-12.42,6.87-3.8,4.52-3.3,7.1.68,7.1,3.75,0,8.79-2.54,12.59-7.06,2.95-3.51,3.67-6.91-.85-6.91h0Z"/>
          <polygon class="cls-3" points="35.72 28.57 47.35 28.57 44.41 32.06 40.68 32.06 32.46 41.84 28.3 41.84 36.52 32.06 32.78 32.06 35.72 28.57 35.72 28.57"/>
          <polygon class="cls-3" points="37.27 41.84 48.43 28.56 52.48 28.56 41.33 41.84 37.27 41.84 37.27 41.84"/>
        </g>
        <g>
          <path class="cls-2" d="m63.31,41.82h-6.46c5.58-6.59,12.36-14.9,12.36-14.9h6.33l-12.22,14.9h0Z"/>
          <path class="cls-2" d="m85.13,41.82h-6.46c5.58-6.59,12.36-14.9,12.36-14.9h6.33l-12.22,14.9h0Z"/>
          <path class="cls-5" d="m66.64,51.16c12.97-15.95,19.88-24.24,19.88-24.24h-6.33s-6.95,8.31-20.02,24.24h6.46Z"/>
          <path class="cls-4" d="m84.04,0c-3.91,4.76-12.59,15.29-13.55,16.25-1.25,1.25-1.76,1.58-3.46,2.1-1.48.46-3.31,2.55-4.12,3.41-.64.68-16.88,20.05-16.88,20.05h6.33s16.16-19.35,16.8-20.05c.76-.83,1.95-1.69,3.82-2.29,1.44-.46,3.27-2.27,4.02-3.15.58-.68,9.43-11.49,13.39-16.33h-6.33Z"/>
          <path class="cls-2" d="m66.71,8.05c-2.48,3.02-6.1,7.4-6.91,8.2-1.25,1.25-1.76,1.58-3.46,2.1-1.48.46-3.31,2.55-4.12,3.41-.64.68-2.7,2.95-2.7,2.95h6.33s1.98-2.26,2.62-2.95c.76-.83,1.95-1.69,3.82-2.29,1.44-.46,3.27-2.27,4.02-3.15.49-.57,4.21-5.15,6.76-8.27h-6.34Z"/>
          <path class="cls-2" d="m88.08,8.05c-2.48,3.02-6.1,7.4-6.91,8.2-1.25,1.25-1.76,1.58-3.46,2.1-1.48.46-3.31,2.55-4.12,3.41-.64.68-2.52,2.96-2.52,2.96h6.33s1.8-2.26,2.44-2.96c.76-.83,1.95-1.69,3.82-2.29,1.44-.46,3.27-2.27,4.02-3.15.49-.57,4.21-5.15,6.76-8.27h-6.34Z"/>
        </g>
      </g>
      <g>
        <path class="cls-1" d="m167.45,18.27v4.01h19.33c1.48,0,1.1,1.25,1.1,2.91v12.06c0,.57.3,1.97-1.26,1.97-2.29,0-2.26,0-2.26,0v-8.18h-4.57v8.18h-3.78v-8.18h-4.63v8.18h-4.57v4.01h21.11c4.48,0,4.41-3.31,4.41-5.08v-15.43c0-1.67-1.07-4.46-4.1-4.46h-20.77Z"/>
        <path class="cls-1" d="m234.79,32.68c2.2,0,4.08-.79,5.63-2.36,1.57-1.57,2.36-3.46,2.36-5.66s-.79-4.08-2.36-5.63c-1.55-1.55-3.43-2.33-5.63-2.33s-4.11.77-5.66,2.33c-1.55,1.55-2.33,3.43-2.33,5.63s.78,4.09,2.33,5.66c1.55,1.57,3.44,2.36,5.66,2.36h0Zm-2.92-10.99c.81-.78,1.78-1.17,2.92-1.17s2.11.39,2.92,1.17c.81.81,1.21,1.8,1.21,2.97,0,1.11-.4,2.07-1.21,2.88-.84.84-1.81,1.26-2.92,1.26s-2.11-.42-2.92-1.26c-.81-.84-1.21-1.8-1.21-2.88,0-1.17.4-2.16,1.21-2.97h0Z"/>
        <path class="cls-1" d="m281.99,22.1c0-4.27-4.25-3.83-5.3-3.83h-19.48v4.01h17.41c3.12,0,2.99-.07,2.99,2.61v6.22h-21.2v4.12h10.93v8.1h4.38v-8.1h10.26v-13.13h0Z"/>
        <path class="cls-1" d="m157.47,18.42h-19.47v4.01h17.41c3.12,0,2.99-.07,2.99,2.61v1.48h-21.2v4.12h10.93v3.15h-10.14v4.01h17.41c3.12,0,2.99-.07,2.99,2.61,0,3.44,0,2.79,0,2.79l4.37.04v-5.62c0-4.27-4.26-3.83-5.3-3.83h-4.96v-3.15h10.26v-8.39c0-4.27-4.26-3.83-5.3-3.83h0Z"/>
        <path class="cls-1" d="m302.37,29.5c.95-1.37,1.42-2.93,1.42-4.68,0-2.31-.83-4.28-2.48-5.91-1.63-1.63-3.6-2.44-5.91-2.44s-4.32.82-5.94,2.44c-1.63,1.63-2.44,3.6-2.44,5.91,0,1.75.47,3.31,1.4,4.68h-2.38v3.86h7.42v3.86h4.22v-3.86h7.39v-3.86h-2.7Zm-10.09-7.85c.87-.83,1.91-1.25,3.13-1.25s2.26.42,3.13,1.25c.87.87,1.3,1.92,1.3,3.18,0,1.19-.43,2.21-1.3,3.08-.9.9-1.94,1.35-3.13,1.35s-2.26-.45-3.13-1.35c-.87-.9-1.3-1.92-1.3-3.08,0-1.25.43-2.31,1.3-3.18h0Z"/>
        <path class="cls-1" d="m308.19,18.25h-4.33v3.83h3.18s0,2.6,0,2.6v12.24c0,.86.29,1.96-1.23,1.96h-14.27c-1.31,0-1.07-1.06-1.07-1.8v-2.02h-4.38v4.24c0,.83.19,3.6,3.42,3.6h17.49c3.23-.18,4.36-2.49,4.36-4.01v-16.97c0-1.09-.19-3.66-3.17-3.66h0Z"/>
        <path class="cls-1" d="m109.32,22.27c-.95,1.37-1.42,2.93-1.42,4.68,0,2.31.83,4.28,2.48,5.91,1.63,1.63,3.6,2.44,5.91,2.44s4.32-.82,5.94-2.44c1.63-1.63,2.44-3.6,2.44-5.91,0-1.75-.47-3.31-1.4-4.68h2.38v-3.86h-7.42v-1.98h-4.22v1.98h-7.39v3.86h2.7Zm10.09,7.85c-.87.83-1.91,1.25-3.13,1.25s-2.26-.42-3.13-1.25c-.87-.87-1.3-1.92-1.3-3.18s.43-2.21,1.3-3.08c.9-.9,1.94-1.35,3.13-1.35s2.26.45,3.13,1.35c.87.9,1.3,1.93,1.3,3.08,0,1.25-.43,2.31-1.3,3.18h0Z"/>
        <path class="cls-1" d="m131.93,39.5c0,1.52-1.12,3.57-4.35,3.75h-17.49c-3.23,0-3.42-2.77-3.42-3.6v-4.24h4.38v2.02c0,.74-.24,1.8,1.07,1.8h14.27s1.21-.05,1.21-1.23v-16.06c0-1.09.19-3.66,3.17-3.66h4.33v3.83h-3.18s0,2.6,0,2.6v14.79h0Z"/>
        <path class="cls-1" d="m222.91,31.32h-10.73v-1.53h10.23v-3.27h-20.53v-1.3h20.53v-2.44h-20.53v-1.35h20.53v-3.16h-22.1c-3.54,0-3.24,2.27-3.24,3.1v5.04c0,.94-.2,3.38,3.14,3.38h7.17v1.53h-10.78v3.6h4.41c-.2.74-.31,1.52-.31,2.33,0,4.96,4.03,8.99,8.99,8.99s8.99-4.03,8.99-8.99c0-.81-.11-1.59-.31-2.33h4.54v-3.6h0Zm-8.35,6c0,2.69-2.18,4.87-4.87,4.87s-4.87-2.18-4.87-4.87c0-.88.25-1.69.66-2.4h8.42c.41.71.66,1.52.66,2.4h0Z"/>
        <path class="cls-1" d="m252.92,22.52c0-4.48-3.48-3.94-4.33-3.94s0,.01,0,.01h-4.57v3.75h4.58v3.56h-4.58v3.8h4.58v7.42c0,.41.39,1.76-1.25,1.76h-13.78c-1.97,0-1.83-.86-1.83-1.59v-4.38h-4.38v6.39c0,.11,0,.26.02.42.09,1.09.6,3.18,3.41,3.18h18.7c2.8,0,3.32-2.08,3.41-3.18.01-.17.02-.32.02-.42v-5.62h0v-11.17h0Z"/>
      </g>
    </g>
  </g>
</svg>